<svg height="512" viewBox="0 0 64 64" width="512" xmlns="http://www.w3.org/2000/svg"><g id="Filled_outline" data-name="Filled outline"><path d="m57 61h-50a4 4 0 0 1 -4-4v-54h42l12 12z" fill="#e5e4d1"/><path d="m57 15h-12v-12z" fill="#c6c3a7"/><path d="m47 5h10v10z" fill="#e5e4d1"/><path d="m57 8h4a0 0 0 0 1 0 0v49a4 4 0 0 1 -4 4 0 0 0 0 1 0 0v-53a0 0 0 0 1 0 0z" fill="#d3d1b6"/><path d="m7 24h22v12h-22z" fill="#f9bb4b"/><path d="m39 40h14v8h-14z" fill="#f9bb4b" transform="matrix(-1 0 0 -1 92 88)"/><path d="m7 52h46v4h-46z" fill="#2d75bb" transform="matrix(-1 0 0 -1 60 108)"/><path d="m33 24h20v4h-20z" fill="#f9bb4b"/><path d="m33 32h20v4h-20z" fill="#f9bb4b"/><path d="m61 7h-3v-2a1 1 0 0 0 -1-1h-9.586l-1.707-1.707a1 1 0 0 0 -.707-.293h-42a1 1 0 0 0 -1 1v54a5.006 5.006 0 0 0 5 5h50a5.006 5.006 0 0 0 5-5v-49a1 1 0 0 0 -1-1zm-15-1.586 8.586 8.586h-8.586zm10 54.586h-49a3 3 0 0 1 -3-3v-53h40v11a1 1 0 0 0 1 1h11zm0-47.414-6.586-6.586h6.586zm4 44.414a3 3 0 0 1 -2 2.816v-50.816h2z"/><path d="m8 8h.307l3 8h3.693v-10h-2v8h-.307l-3-8h-3.693v10h2z"/><path d="m25 16h2a1 1 0 0 0 .929-.629l1.071-2.679 1.071 2.679a1 1 0 0 0 .929.629h2a1 1 0 0 0 1-1v-9h-2v8h-.323l-1.748-4.371a1 1 0 0 0 -1.858 0l-1.748 4.371h-.323v-8h-2v9a1 1 0 0 0 1 1z"/><path d="m22 14h-3v-2h3v-2h-3v-2h3v-2h-5v10h5z"/><path d="m42 15v-4a1 1 0 0 0 -1-1h-3v-2h4v-2h-5a1 1 0 0 0 -1 1v4a1 1 0 0 0 1 1h3v2h-4v2h5a1 1 0 0 0 1-1z"/><path d="m6 18h48v2h-48z"/><path d="m30 23h-24v14h24zm-2 12h-20v-10h20z"/><path d="m6 43h14v2h-14z"/><path d="m6 39h24v2h-24z"/><path d="m6 47h22v2h-22z"/><path d="m38 49h16v-10h-16zm2-8h12v6h-12z"/><path d="m6 57h48v-6h-48zm2-4h44v2h-44z"/><path d="m32 29h22v-6h-22zm2-4h18v2h-18z"/><path d="m32 37h22v-6h-22zm2-4h18v2h-18z"/><path d="m32 39h4v2h-4z"/><path d="m22 43h14v2h-14z"/><path d="m30 47h6v2h-6z"/></g></svg>